<svg xmlns="http://www.w3.org/2000/svg" viewBox="0 0 64 64" fill="none">
  <defs>
    <linearGradient id="simple-pos-icon-bg" x1="32" y1="4" x2="32" y2="60" gradientUnits="userSpaceOnUse">
      <stop stop-color="#3F8DFF" />
      <stop offset="1" stop-color="#1768E8" />
    </linearGradient>
  </defs>
  <rect x="4" y="4" width="56" height="56" rx="16" fill="url(#simple-pos-icon-bg)" />
  <g transform="translate(64 0) scale(-1 1)">
    <path
      fill="#fff"
      d="M36.73 22.08c-1.75-.94-3.87-1.41-6.36-1.41-2.13 0-4.13.32-6 .95v5.75c1.84-.83 3.78-1.25 5.8-1.25 1.41 0 2.54.22 3.39.66.85.44 1.28 1.11 1.28 2 0 .77-.3 1.37-.91 1.81-.61.44-1.74.89-3.39 1.36-2.76.77-4.77 1.72-6.05 2.86-1.28 1.13-1.92 2.73-1.92 4.8 0 2.34.86 4.17 2.58 5.5 1.72 1.33 4.01 1.99 6.88 1.99 2.47 0 4.78-.44 6.94-1.31v-5.97c-2.02 1.1-4.17 1.66-6.45 1.66-1.53 0-2.75-.24-3.67-.72-.92-.48-1.38-1.19-1.38-2.13 0-.85.35-1.51 1.05-1.97.7-.46 1.93-.92 3.69-1.38 2.59-.68 4.5-1.58 5.72-2.72 1.22-1.13 1.83-2.73 1.83-4.8 0-2.21-.87-3.95-2.62-5.2Z"
    />
  </g>
</svg>
